# xmcd
#
# Track frame offsets:
#	150
#	33335
#	50271
#	73149
#	106166
#	136694
#	153946
#	170475
#	185576
#	213322
#	235696
#	270740
#	305742
#	324960
#	338815
#
# Disc length: 4707 seconds
#
# Revision: 2
# Processed by: cddbd v1.5.2PL0 Copyright (c) Steve Scherf et al.
# Submitted via: audiograbber 1.83.01
#
DISCID=cc12610f
DTITLE=Various Artist - Trance Charts 2004.1
DYEAR=2003
DGENRE=Trance
TTITLE0=DJ Quicksilver - Clubfiles One (Equinoxe IV)
TTITLE1=Ayla - Liebe 0.3
TTITLE2=Marc Et Claude feat. Maria Nayler - Free Spirit (Marc Van Linden Remix)
TTITLE3=Trippa - Everybody Needs (Club Version)
TTITLE4=FMG - Back In The Club (Club Attack Mix)
TTITLE5=Decay - Last Day (Radio Mix)
TTITLE6=Driftwood - Anything Goes (Original Radio Edit)
TTITLE7=CJ Stone - Don't Look Back
TTITLE8=Calderone Inc. feat. Andy Jay Powell - See The Light
TTITLE9=Floyd - 4 Ever (Deep Dub)
TTITLE10=O.S.I.R.I.S feat. Kyra - Deep In The Night (Original Club Mix)
TTITLE11=Savon - Way To Heaven
TTITLE12=Base 1 - Reality (Original Mix)
TTITLE13=Starparty - I'm In Love (Marc Van Linden Remix)
TTITLE14=Yomanda - You're Free
EXTD=
EXTT0=
EXTT1=
EXTT2=
EXTT3=
EXTT4=
EXTT5=
EXTT6=
EXTT7=
EXTT8=
EXTT9=
EXTT10=
EXTT11=
EXTT12=
EXTT13=
EXTT14=
PLAYORDER=
